<?xml version='1.0' encoding='utf-8'?>
<svg xmlns="http://www.w3.org/2000/svg" xmlns:xlink="http://www.w3.org/1999/xlink" viewBox="0 0 104.181 38.09" fill="#00aa00" fill-rule="evenodd" stroke="#000000" stroke-linecap="round" stroke-linejoin="round"><style>.B{fill:#0084c0}.C{stroke:#fff}.D{stroke-linejoin:miter}.E{stroke:none}.F{stroke-width:.787}.G{fill:none}.H{stroke-width:1.181}</style><use xlink:href="#A" x=".59" y=".5" /><symbol id="A" overflow="visible"><path d="M66.909 34.635V9.446h-31.88v25.189h31.88z" class="B C D H" /><path d="M63.76 31.486V12.201H38.177v19.285H63.76z" class="E" /><g class="B C D H"><path d="M35.029 9.446L31.88 6.691h38.177l-3.149 2.755h-31.88z" /><path d="M66.908 34.635l3.149-3.936V6.691l-3.149 2.755v25.189z" /><path d="M98.788 36.603V11.414l-31.88-1.968v25.189l31.88 1.968z" /></g><path d="M95.64 33.455V14.169l-25.583-1.574V31.88l25.583 1.574z" class="E" /><g class="B C D H"><path d="M66.908 9.446l3.149-2.361 31.88 1.968-3.149 2.361-31.88-1.968z" /><path d="M98.789 36.603l3.542-3.936V8.659l-3.542 2.755v25.189zm-95.639 0V11.414l31.88-1.968v25.189l-31.88 1.968z" /></g><path d="M6.297 33.455V14.169l25.583-1.574V31.88L6.297 33.455z" class="E" /><g class="B C D"><g class="H"><path d="M35.029 9.446L31.88 7.084 0 9.052l3.149 2.361 31.88-1.968z" /><path d="M3.149 36.603L0 32.667V8.659l3.149 2.755v25.189z" /></g><path d="M55.495 10.233V0h-8.659v10.233h8.659z" class="F" /></g><use xlink:href="#C" class="B E" /><g class="C D F"><use xlink:href="#C" class="G" /><path d="M64.154 10.233V0h-8.659v10.233h8.659z" class="B" /></g><use xlink:href="#D" class="B E" /><g class="C D F"><use xlink:href="#D" class="G" /><path d="M46.836 10.233V0h-8.265v10.233h8.265z" class="B" /></g><use xlink:href="#C" x="-8.659" class="B E" /><use xlink:href="#C" x="-8.659" class="C D F G" /><use xlink:href="#E" class="B E" /><use xlink:href="#E" class="C D F G" /><use xlink:href="#F" class="B E" /><use xlink:href="#F" class="C D F G" /><use xlink:href="#G" class="B E" /><use xlink:href="#G" class="C D F G" /><use xlink:href="#H" class="B E" /><use xlink:href="#H" class="C D F G" /><use xlink:href="#E" x="4.33" y="2.361" class="B E" /><use xlink:href="#E" x="4.33" y="2.361" class="C D F G" /><use xlink:href="#H" x="8.265" class="B E" /><use xlink:href="#H" x="8.265" class="C D F G" /><use xlink:href="#I" class="B E" /><use xlink:href="#I" class="C D F G" /><use xlink:href="#J" class="B E" /><use xlink:href="#J" class="C D F G" /><use xlink:href="#K" class="B E" /><use xlink:href="#K" class="C D F G" /><use xlink:href="#H" x="4.33" y="2.361" class="B E" /><use xlink:href="#H" x="4.33" y="2.361" class="C D F G" /><use xlink:href="#K" x="8.265" class="B E" /><use xlink:href="#K" x="8.265" class="C D F G" /><use xlink:href="#H" x="12.595" y="2.361" class="B E" /><use xlink:href="#H" x="12.595" y="2.361" class="C D F G" /><use xlink:href="#L" class="B E" /><use xlink:href="#L" class="C D F G" /><use xlink:href="#M" class="B E" /><use xlink:href="#M" class="C D F G" /><use xlink:href="#N" class="B E" /><use xlink:href="#N" class="C D F G" /><use xlink:href="#O" class="B E" /><use xlink:href="#O" class="C D F G" /><use xlink:href="#P" class="B E" /><use xlink:href="#P" class="C D F G" /><use xlink:href="#Q" class="B E" /><use xlink:href="#Q" class="C D F G" /><use xlink:href="#R" class="B E" /><use xlink:href="#R" class="C D F G" /><use xlink:href="#S" class="B E" /><use xlink:href="#S" class="C D F G" /><use xlink:href="#T" class="B E" /><use xlink:href="#T" class="C D F G" /><use xlink:href="#M" x="0.393" y="3.937" class="B E" /><use xlink:href="#M" x="0.393" y="3.937" class="C D F G" /><use xlink:href="#N" x="12.594" y="1.181" class="B E" /><use xlink:href="#N" x="12.594" y="1.181" class="C D F G" /><use xlink:href="#S" x="16.531" y="-0.787" class="B E" /><use xlink:href="#S" x="16.531" y="-0.787" class="C D F G" /><use xlink:href="#U" class="B E" /><use xlink:href="#U" class="C D F G" /><use xlink:href="#V" class="B E" /><use xlink:href="#V" class="C D F G" /><use xlink:href="#W" class="B E" /><use xlink:href="#W" class="C D F G" /><use xlink:href="#X" class="B E" /><use xlink:href="#X" class="C D F G" /><use xlink:href="#Y" class="B E" /><use xlink:href="#Y" class="C D F G" /><use xlink:href="#Z" class="B E" /><use xlink:href="#Z" class="C D F G" /><use xlink:href="#a" class="B E" /><use xlink:href="#a" class="C D F G" /><use xlink:href="#b" class="B E" /><use xlink:href="#b" class="C D F G" /><use xlink:href="#c" class="B E" /><use xlink:href="#c" class="C D F G" /><use xlink:href="#d" class="B E" /><use xlink:href="#d" class="C D F G" /><use xlink:href="#e" class="B E" /><use xlink:href="#e" class="C D F G" /><use xlink:href="#b" x="-16.53" y="-0.787" class="B E" /><use xlink:href="#b" x="-16.53" y="-0.787" class="C D F G" /></symbol><defs><path id="C" d="M53.916 6.304c0 1.181-1.181 2.361-2.361 2.361-1.574 0-2.755-1.181-2.755-2.361 0-1.574 1.181-2.755 2.755-2.755 1.181 0 2.361 1.181 2.361 2.755z" /><path id="D" d="M62.575 6.304c0 1.181-1.181 2.361-2.755 2.361-1.181 0-2.361-1.181-2.361-2.361 0-1.574 1.181-2.755 2.361-2.755 1.574 0 2.755 1.181 2.755 2.755z" /><path id="E" d="M53.915 21.654v3.542h-6.297v-3.542c3.149-1.968 6.297 0 6.297 0z" /><path id="F" d="M52.735 18.898c0 1.181-.787 1.968-1.968 1.968-.787 0-1.968-.787-1.968-1.968s1.181-1.968 1.968-1.968c1.181 0 1.968.787 1.968 1.968z" /><path id="G" d="M49.98 24.015v3.542h-6.691v-3.542c3.542-1.968 6.691 0 6.691 0z" /><path id="H" d="M48.799 21.26c0 1.181-.787 1.968-1.968 1.968s-1.968-.787-1.968-1.968.787-1.968 1.968-1.968 1.968.787 1.968 1.968z" /><path id="I" d="M46.044 26.376v4.723h-6.691v-4.723c3.542-1.968 6.691 0 6.691 0z" /><path id="J" d="M44.864 23.621c0 1.181-1.181 1.968-1.968 1.968-1.181 0-1.968-.787-1.968-1.968s.787-1.968 1.968-1.968c.787 0 1.968.787 1.968 1.968z" /><path id="K" d="M54.309 26.376v4.723h-6.297v-4.723c3.149-1.968 6.297 0 6.297 0z" /><path id="L" d="M15.345 23.228v3.936l7.478-.394v-4.329c-3.936-1.968-7.478.787-7.478.787z" /><path id="M" d="M16.92 20.078c0 1.181.787 1.968 1.968 1.968s2.361-1.181 2.361-2.361-1.181-1.968-2.361-1.968-1.968 1.181-1.968 2.361z" /><path id="N" d="M11.41 25.589v5.117l7.084-.394v-5.51c-3.542-1.968-7.084.787-7.084.787z" /><path id="O" d="M12.59 22.441c0 1.181 1.181 1.968 2.361 1.968s2.361-1.181 2.361-2.361-1.181-1.968-2.361-1.968-2.361 1.181-2.361 2.361z" /><path id="P" d="M19.281 24.802v5.51l7.478-1.574v-4.329c-3.542-1.968-7.478.393-7.478.393z" /><path id="Q" d="M20.855 21.653c0 1.574.787 2.361 1.968 2.361s2.361-1.181 2.361-2.361-1.181-2.362-2.361-1.968c-1.181 0-1.968.787-1.968 1.968z" /><path id="R" d="M7.474 27.557v5.116l7.084-.394v-5.116c-3.542-1.968-7.084.393-7.084.393z" /><path id="S" d="M8.654 24.409c0 1.181 1.181 1.968 2.361 1.968s1.968-1.181 1.968-2.361-.787-1.968-1.968-1.968-2.361 1.181-2.361 2.361z" /><path id="T" d="M15.739 27.164v5.116l7.478-.394V26.77c-3.542-1.968-7.478.393-7.478.393z" /><path id="U" d="M86.582 23.228v3.936l-7.084-.394v-4.329c3.542-1.968 7.084.787 7.084.787z" /><path id="V" d="M85.402 20.078c0 1.181-1.181 1.968-2.361 1.968s-2.361-1.181-2.361-2.361 1.181-1.968 2.361-1.968 2.361 1.181 2.361 2.361z" /><path id="W" d="M90.518 25.589v4.723l-7.084-1.181v-4.329c3.542-1.968 7.084.787 7.084.787z" /><path id="X" d="M89.337 22.441c0 1.181-1.181 1.968-2.361 1.968s-1.968-1.181-1.968-2.361.787-1.968 1.968-1.968 2.361 1.181 2.361 2.361z" /><path id="Y" d="M82.647 24.802v4.329l-7.478-.394v-4.329c3.936-1.968 7.478.393 7.478.393z" /><path id="Z" d="M81.072 21.653c0 1.574-.787 2.361-1.968 2.361s-2.362-1.181-2.362-2.361 1.181-2.362 2.362-1.968c1.181 0 1.968.787 1.968 1.968z" /><path id="a" d="M94.847 27.557v5.116l-7.478-.787v-4.723c3.542-1.968 7.478.393 7.478.393z" /><path id="b" d="M93.273 24.409c0 1.181-.787 1.968-2.361 1.968-1.181 0-1.968-1.181-1.968-2.361s.787-1.968 1.968-1.968c1.574 0 2.361 1.181 2.361 2.361z" /><path id="c" d="M86.189 27.164v4.723l-7.478-.393V26.77c3.936-1.968 7.478.393 7.478.393z" /><path id="d" d="M84.614 24.015c0 1.181-.787 1.968-1.968 1.968s-2.362-1.181-2.362-2.361 1.181-1.968 2.362-1.968 1.968 1.181 1.968 2.361z" /><path id="e" d="M78.317 26.376v5.116l-7.478-.394v-5.116c3.542-1.968 7.478.393 7.478.393z" /></defs></svg>