<?xml version='1.0' encoding='utf-8'?>
<svg xmlns="http://www.w3.org/2000/svg" xmlns:xlink="http://www.w3.org/1999/xlink" viewBox="0 0 311.795 27.795" fill="#00aa00" fill-rule="evenodd" stroke="#000000" stroke-linecap="round" stroke-linejoin="round"><style>.B{stroke-linejoin:miter}.C{stroke-linecap:butt}.D{fill:none}.E{stroke-width:2.795}.F{stroke-width:5.59}.G{fill:#0084c0}.H{stroke:none}</style><use xlink:href="#A" x="1.397" y="1.397" /><symbol id="A" overflow="visible"><g stroke="#006600"><g transform="matrix(-1 0 0 -1 52.011906 24.451023)"><g class="B C D"><path d="M26.084 14.515C19.675-4.531 5.589-3.519 1.242 11.8" class="E" /><use xlink:href="#C" class="F" /></g><use xlink:href="#D" class="G H" /></g><g class="B C D"><use xlink:href="#E" class="E" /><use xlink:href="#F" class="F" /></g><use xlink:href="#G" class="G H" /><g transform="matrix(-1 0 0 -1 308.759564 24.940382)"><g class="B C D"><use xlink:href="#E" class="E" /><use xlink:href="#F" class="F" /></g><use xlink:href="#G" class="G H" /></g><g transform="matrix(-1 0 0 -1 102.937078 24.450957)"><g class="B C D"><use xlink:href="#H" class="E" /><use xlink:href="#C" class="F" /></g><use xlink:href="#D" class="G H" /></g><g class="B C D"><path d="M50.925 14.514C57.549-4.531 69.608-3.91 76.646 10.995" class="E" /><use xlink:href="#F" x="50.925" class="F" /></g><use xlink:href="#G" x="50.925" class="G H" /><g transform="matrix(-1 0 0 -1 154.069263 24.450957)"><g class="B C D"><use xlink:href="#H" class="E" /><use xlink:href="#C" class="F" /></g><use xlink:href="#D" class="G H" /></g><g class="B C D"><use xlink:href="#I" class="E" /><use xlink:href="#F" x="102.057" class="F" /></g><use xlink:href="#G" x="102.057" class="G H" /><g transform="matrix(-1 0 0 -1 205.201447 24.450957)"><g class="B C D"><use xlink:href="#H" class="E" /><use xlink:href="#C" class="F" /></g><use xlink:href="#D" class="G H" /></g><g class="B C D"><use xlink:href="#I" x="51.133" class="E" /><use xlink:href="#F" x="153.19" class="F" /></g><use xlink:href="#G" x="153.19" class="G H" /><g transform="matrix(-1 0 0 -1 256.126619 24.450957)"><g class="B C D"><use xlink:href="#H" class="E" /><use xlink:href="#C" class="F" /></g><use xlink:href="#D" class="G H" /></g><g class="B C D"><use xlink:href="#I" x="102.058" class="E" /><use xlink:href="#F" x="204.115" class="F" /></g><use xlink:href="#G" x="204.115" class="G H" /><g class="B C D"><use xlink:href="#I" x="152.983" class="E" /><use xlink:href="#F" x="255.04" class="F" /></g><use xlink:href="#G" x="255.04" class="G H" /></g></symbol><defs><path id="C" d="M24.936 13.065C19.729 27.142 6.417 27.947.207 12.444" /><path id="D" d="M22.229 12.288q.651-2.07.3-2.846 2.003 2.898 1.702 4.037-1.252-.569-2.003-1.19z" /><path id="E" d="M0 14.514C6.624-4.531 18.683-3.91 25.721 10.995" /><path id="F" d="M1.294 13.065c5.382 14.077 16.975 14.698 25.67-.621" /><path id="G" d="M3.985 12.288q-.673-2.07-.311-2.846-2.07 2.898-1.76 4.037 1.294-.569 2.07-1.19z" /><path id="H" d="M26.084 14.514C19.675-4.532 5.589-3.52 1.242 11.799" /><path id="I" d="M102.057 14.514c6.624-19.045 18.683-18.424 25.721-3.519" /></defs></svg>