<?xml version='1.0' encoding='utf-8'?>
<svg xmlns="http://www.w3.org/2000/svg" xmlns:xlink="http://www.w3.org/1999/xlink" viewBox="0 0 47 42" fill="#00aa00" fill-rule="evenodd" stroke="#000000" stroke-linecap="round" stroke-linejoin="round"><style>.B{fill:#126d99}.C{stroke:#fff}.D{stroke-linejoin:miter}.E{stroke-width:.788}.F{stroke:none}.G{stroke-linecap:square}</style><use xlink:href="#A" x=".5" y=".5" /><symbol id="A" overflow="visible"><g class="B"><path d="M6.696 36.632V30.33h32.693v6.302H6.696z" class="C D E" /><path d="M45.297 24.815v6.302l-5.908 5.515V30.33H6.696z" class="F" /></g><path d="M45.297 24.815v6.302l-5.908 5.515V30.33H6.696" fill="none" class="C D E G" /><path d="M6.696 24.815h38.601z" class="B F" /><path d="M6.696 24.815h38.601" fill="none" class="C D E G" /><path d="M39.389 30.33l5.908-5.515z" class="B F" /><g class="C D E"><path d="M39.389 30.33l5.908-5.515" fill="none" class="G" /><g class="B"><path d="M39.389 30.33V5.515H6.696V30.33h32.693z" /><path d="M39.389 30.33l5.908-5.514V0H12.211L6.696 5.515h32.693V30.33zm-2.757-2.757V8.272H9.453v19.301h27.178z" /></g></g><path d="M39.389 5.515L45.297 0z" class="B F" /><g class="C D E"><path d="M39.389 5.515L45.297 0" fill="none" class="G" /><g class="B"><path d="M37.813 40.965V37.42H0l4.333-4.333h37.813v3.545l-4.333 4.333z" /><path d="M37.813 37.42v3.545H0V37.42h37.813z" /></g></g><path d="M37.813 37.42l4.333-4.333z" class="B F" /><path d="M37.813 37.42l4.333-4.333" fill="none" class="C D E G" /></symbol></svg>